<svg xmlns="http://www.w3.org/2000/svg" enable-background="new 0 0 100 100" viewBox="0 0 100 100"><g fill="#464646"><path d="m56.4 70.7c-1.5 1-3 1.8-4.8 1.8-4.3-.1-7.5-3.7-7.2-7.4.1-1.7.6-3.3.7-5 .2-3.8.3-7.7.4-11.6 0-1.2-.5-2.4-.2-3.5.4-2.2 1.8-3.8 4-4.3 2.1-.5 4.2-.1 5.7 1.7.4.5.9.9 1.4 1.3 3.4 2.6 6.8 5.1 10.2 7.7 2.4 1.9 2.5 2 4.1.1v-.2c-1-1.1-1-1.1 0-1.9.9.1 1.5.4 1.9.2.8-.6 1.5-1.3 2.3-2-.5-.5-.7-.8-1.1-1.3.4-.4.8-.7 1.3-1 .3.2.6.6 1 .9.9-.9 1.8-1.8 2.5-2.6-4.5-4.5-9.1-9.1-13.8-13.8-.8.9-1.7 1.9-2.6 3-1.2-2.5-1.9-2.4-5.7-2.1v2.4c-.9 0-1.8 0-2.7 0 0-.9 0-1.7 0-2.5-1 0-1.9 0-2.8 0s-1.9 0-2.9 0v2.6c-1 0-1.9 0-2.9 0 0-.9 0-1.7 0-2.6-1.2.1-2.3 0-3.3.2-1.1.3-1.6 1.3-1.8 2.7-1.3-1.3-2.4-2.5-3.5-3.6-4.8 4.5-9.4 9.1-14 13.7 1 .9 1.9 1.7 2.9 2.5.3-.3.5-.6 1-1.3.4.7.9 1.6.8 1.6-1.1 1-.3 1.5.4 2.1.5.4 1 .9 1.5 1.4.3-.3.6-.6 1-1 .4.4.8.9 1.2 1.3-.3.4-.7.8-1 1.2.8.8 1.6 1.5 2.2 2.1-.5.3-1.1.4-1.4.8-2.1 2.5-4 5.1-6.1 7.6-.8-.4-.7-.8-.2-1.4 1.7-2.1 3.3-4.3 5-6.5.1-.2.1-.5.2-.7-.5.1-.8.3-1 .6-2.7 3.4-5.4 6.8-8.1 10.2-.6.8-.8 1.6-.3 2.4.3.6.9 1.4 1.5 1.5 1.6.1 3.6.4 4.9-.3 1.4-.8 2.2-2.6 3.4-4.1-.9 0-1.6-.1-2.5-.1 2.5-3.2 4.9-6.1 7.2-9.1-.1-.1-.3-.2-.4-.3-3.4 4.4-7 8.9-10.6 13.3-.1-.1-.2-.1-.2-.2 3.5-4.3 6.9-8.7 10.4-13.1-.5 0-.8-.1-1.5-.1.9-.6 1.5-1.1 2.2-1.6.8 4 1.3 7.7 2.2 11.3.6 2.8 1.6 5.6 2.4 8.3.2.6.5 1 1.3 1h20c.4 0 1-.2 1.1-.5.8-1.9 1.4-3.9 2.1-5.8-2.8 1.2-5.4 2.4-7.8 4zm11-36.6c2 2 4.1 4.1 6.2 6.2-.9.9-1.8 1.8-2.7 2.6-2-2-4.1-4.1-6.2-6.2.9-.8 1.8-1.7 2.7-2.6zm-8.4 4.6c.6.1 1.3.8 1.4 1.4.2.7-.4 1.4-1.3 1.4-.9-.1-1.5-.5-1.5-1.4.1-.8.6-1.5 1.4-1.4zm-27.9 4.2c-.2.2-.8.1-1.1-.1-.9-.7-1.6-1.5-2.4-2.3 2.2-2.2 4.3-4.3 6.4-6.4l3 3c-1.9 1.9-3.9 3.9-5.9 5.8zm9.6 12.3c-1 0-2.1-1.1-2.1-2.2s.8-1.9 2-1.9c1.1 0 1.9.8 1.9 2s-.7 2.1-1.8 2.1z"/><path d="m64.5 63.6c.1-.1.3-.3.3-.4.5-2.5 1-5.1 1.4-7.6.2-.9.2-1.7-.9-2.4-1.5-.9-2.8-2.1-4.3-3.2s-3-2.2-4.5-3.3c-1.1 4.2-4.5 6.3-8.9 4.3v7.9c5.2-3.2 12.2 1 11.2 7.8 2-1.1 3.9-2.1 5.7-3.1z"/><path d="m39.7 74.3v5.1c0 1.3 1.1 2.8 2.1 2.9 1.2.1 2.4 0 3.7 0 0-1.1 0-2.1 0-3h2.4v3h5.8c0-1.1-.1-2-.1-3h3.2c-.1 1-.1 2-.2 3.1.7 0 1.4-.1 2 0 1.8.3 3.1-1.5 3.1-2.9.1-1.7 0-3.4 0-5.2-7.4 0-14.7 0-22 0z"/><path d="m81.3 38.8c1.4-1.4 1.4-2.5 0-4-.7-.7-1.4-1.3-2.1-2.1.2-.2.3-.4.5-.5 1-.7.8-1.3 0-2-1-.9-2-2-3-3.1-.6.4-1.1.8-1.8 1.3-.5-.5-1-1.1-1.5-1.7-2.2-2.4-3.2-2.5-5.4-.1-.1.1-.2.2-.3.3-.4-.3-.7-.6-1.1-.9-.5.4-.9.8-1.5 1.3 4.8 4.8 9.6 9.4 14.3 14.1 1.2 1.2 1.2 1.2 2.4-.1-.5-.5-1-1-1.6-1.7.4-.2.8-.5 1.1-.8zm-11.6-11.7c1.3-.7 2.5.1 3.4 1 2.2 2.1 4.3 4.2 6.5 6.4.9.9 1.3 1.8.8 2.8-3.3-3.7-6.6-7.3-10.7-10.2z"/><path d="m20.7 42.4c5.1-5.1 10.2-10.2 15.2-15.2-.3-.3-.6-.7-1-1.2-.4.4-.8.7-1.2 1.1-.4-.4-.7-.8-1.1-1.1-1.1-1.1-2.1-1.3-3.3-.2-1 .8-1.9 1.9-2.9 2.9-.2-.3-.4-.4-.6-.7-.7-.9-1.3-.7-1.9 0-.5.6-1 1-1.5 1.5-1.6 1.6-1.6 1.6-.3 3.3 0 .2 0 .3-.1.3-.7.7-1.5 1.5-2.2 2.2-1.1 1.1-1.1 2.1-.1 3.2.4.4.9.7 1.4 1.1-.7.7-1.1 1.2-1.5 1.7.5.4.9.8 1.1 1.1zm.3-4.9c-.7-1.1-.3-2.1.5-2.9 2.3-2.4 4.7-4.6 7.1-6.9.9-.8 2-1.2 3.5-.6-2.7 1.1-9.2 7.3-11.1 10.4z"/><path d="m40.5 22.8c-.1 0-.3 0-.4.1v3.5c-.2 0-.3 0-.5 0 0-.7 0-1.4 0-2 0-1.4 0-1.4-.8-1.4v2.4c.1 1.8 1 2.7 2.8 2.7h18.1c1.7 0 2.6-1 2.6-2.7 0-.8 0-1.6 0-2.5-4.4 0-8.6 0-13 0v3.5c-.3 0-.8 0-.8-.1-.3-1.1-.4-2.3-.5-3.4-.5 0-.9 0-1.4 0v3.5c-.9.3-1.2-.1-1.2-.9 0-.9 0-1.7 0-2.6-.5 0-1 0-1.5 0v3.5c-.9.3-1.2 0-1.1-.8.1-.9 0-1.7 0-2.7-.5 0-.9.1-1.4.1v3.5c-1.2-1 .1-2.7-.9-3.7z"/><path d="m63.5 22.3h.4c.6 0 1-.4.6-.9-.5-.7-1.1-1.6-1.9-1.9-.9-.4-2.1-.3-3.2-.3-.8 0-1.6.2-2-.8-.1-.2-.8-.4-1.2-.4-3.6 0-7.2 0-10.8 0-.4 0-1.1.1-1.2.4-.4 1.1-1.3.8-2.1.8-.9 0-1.8 0-2.8 0-1.9.1-3 1.2-2.8 3 .2 0 .3.1.4.1z"/><path d="m36.8 64.2c-.1 0-.2-.1-.3-.1-1.7 2.2-3.4 4.3-5.1 6.5-.1-.1-.2-.1-.2-.2 1.4-1.9 2.9-3.8 4.3-5.6 1.2-1.5 1.3-2.4.3-4-2.3 2.9-4.5 5.8-6.8 8.6-.1 0-.2-.1-.3-.1.3-.5.4-1.2.8-1.6 1.8-2.5 3.7-4.9 5.6-7.3.3-.4.5-1 .7-1.5-2.7 3.1-5.2 6.2-7.7 9.4-.9 1.2-.7 2.7.4 3.6 1.1.8 2.8.6 3.7-.7 1.2-1.8 2.7-3.5 4-5.3.4-.5.5-1.2.6-1.7z"/><path d="m75.1 57.5c-.1.1-.2.2-.3.3 1.9 2.3 3.8 4.6 5.7 7-.1.1-.3.2-.4.3-1.6-1.9-3.3-3.8-4.9-5.6-1.3 1.7-.6 2.9.8 4.1 1.2 1.1 2.1 2.4 3.1 3.7-.1.1-.1.2-.2.3-.6-.5-1.2-.9-1.7-1.4-1.2-1.3-2.2-2.5-3.2-3.7-.2-.2-.5-.2-1.1-.4.4.7.6 1 1 1.5-.9 0-1.6 0-2.4 0 .7 1 1.4 1.8 2 2.6.9 1.4 2.1 2.3 3.9 1.9.6-.1 1.2 0 1.8 0 1 0 1.8-.4 2-1.3.2-.8.3-2-.1-2.5-2-2.3-4.1-4.5-6-6.8z"/><path d="m70.5 63.9c-.2-.3-.7-.4-1.1-.5-.1.1-.1.2-.2.4 1.1 1.9 2.9 3.2 3.6 5.3-.1.1-.2.1-.3.2-1.4-1.7-2.7-3.4-4.1-5.2-.9.5-1.8 1-2.8 1.6 1.4 1.9 2.7 3.6 4 5.4.9 1.3 2.5 1.6 3.6.8 1.3-.9 1.5-2.4.5-3.7-1-1.5-2-2.9-3.2-4.3z"/><path d="m66.8 58.9c0 1.8 1.9 3.7 3.7 3.8 2 0 3.7-1.7 3.7-3.8 0-2.2-1.4-3.7-3.7-3.7-2.2-.3-3.7 1.9-3.7 3.7zm5.5 0c0 1-.9 1.9-1.8 1.8-1-.1-1.8-.9-1.8-1.8s.9-1.9 1.8-2c1 0 1.8.8 1.8 2z"/><path d="m76.8 46.8c-2 1.9-4.1 3.9-6.2 5.9 1.8 1.5 4.6 1.2 6.1-.6 1.4-1.6 1.5-4 .1-5.3z"/><path d="m54.3 65.1c0-1.4-1.1-2.5-2.6-2.5-1.4 0-2.6 1.1-2.7 2.4 0 1.3 1.3 2.6 2.7 2.6 1.3.1 2.6-1.2 2.6-2.5z"/><path d="m48.7 61.3c-2.4 1.8-2.5 4.9-1.2 6.7 1.6 2.3 4.8 3.1 7.6 1-.3-.3-.6-.6-.9-1-2.2 1.6-4.1.9-5.3-.2-1.3-1.2-1.2-3.2-.1-5.1.2-.3 0-.9-.1-1.4z"/><path d="m65.3 67.2c-.5 1.8-.9 3.4-1.4 4.9h5.8c-1.7-1.5-2.5-3.6-4.4-4.9z"/><path d="m32.4 71.7h5.8c-.5-1.7-1-3.2-1.6-5.2-1.5 2-2.8 3.5-4.2 5.2z"/><path d="m48.8 46.1c0 1.1.9 1.9 2.1 1.9s2-.8 2-2c0-1-.8-1.8-1.9-1.9-1.1 0-2.2 1-2.2 2z"/><path d="m52.9 49c-.6.4-1.2.6-2.2 1.1.5.2.9.6 1.2.5 2.4-.8 3.8-2.3 3.3-5.2-.3-2-2.2-3.7-4.6-3.5-.1.1-.2.2-.3.4.3.2.6.5.9.5 1.5.3 2.6 1.1 3 2.6.4 1.3.2 2.7-1.3 3.6z"/></g></svg>