<svg xmlns="http://www.w3.org/2000/svg" enable-background="new 0 0 100 100" viewBox="0 0 100 100"><g fill="#464646"><path d="m63 17.5c-8.5-4.2-18.7-.7-22.9 7.7l-4.2 8.4c-1.1 2.2-.2 4.8 2 5.9l22.9 11.3c2.2 1.1 4.8.2 5.9-2l4.1-8.5c4.1-8.3.6-18.6-7.8-22.8zm-8.9 24.1c-2.6.5-5-1.2-5.5-3.8s1.2-5 3.8-5.5 5 1.2 5.5 3.8-1.2 5-3.8 5.5zm11.9-7.6c-.8.3-2.4-.8-2.4-.8l-14.1-7s-1.5-.7-1.8-1.4c-.4-1.3.5-2 1.6-2.7 3.2-2.1 7.5-2.4 11.4-.5 3.7 1.9 6.1 5.4 6.5 9 .2 1.4.2 2.9-1.2 3.4z"/><path d="m53.2 49.2-9.3-4.5c-.3-.1-.6 0-.8.3l-7.9 15.6c-.1.2-.1.3 0 .5l1.4 3c.1.2.1.4 0 .5l-.9 1.8c-.1.1-.2.2-.3.3l-1.5.5c-.2.1-.4.2-.4.5l-.8 4.5c0 .2-.2.3-.3.4-.2.1-.4.4-.3.7l.2.9v.4l-.6 1.1c-.1.2-.3.3-.5.3l-.7.1c-.2 0-.4.2-.5.4l-.4 1c0 .1-.1.2-.2.3-.3.2-1 .7-1.2 1-.1.2-.4.7-.5 1-.1.1-.1.3 0 .4l1 3 .2.6 15.1-30.9c.7-1.4.1-3-1.2-3.7-.3-.2-.4-.5-.3-.8.2-.3.5-.4.8-.3 2 1 2.8 3.4 1.8 5.3l-15.5 31.6c.1 0 .3.1.4 0l.2-.1 1-.3 3.4-1.2c.1 0 .2-.1.3-.3.2-.3.4-.7.5-1s0-1.2 0-1.5c0-.1 0-.2.1-.3l.5-1c.1-.2.1-.4 0-.6l-.3-.6c-.1-.2-.1-.4 0-.6l.6-1.1c.1-.1.2-.2.3-.3l.8-.4c.3-.1.4-.4.3-.7 0-.2 0-.4.1-.5l3.1-3.4c.1-.2.2-.4.1-.6l-.5-1.5c0-.1 0-.3 0-.4l.9-1.8c.1-.2.2-.3.4-.3l3.2-.7c.2 0 .3-.2.4-.3l8-15.5c.2-.3.1-.6-.2-.8z"/></g></svg>