<svg xmlns="http://www.w3.org/2000/svg" enable-background="new 0 0 100 100" viewBox="0 0 100 100"><path d="m49.7 15.3c-19.2 0-34.8 15.6-34.8 34.8 0 19.3 15.6 34.9 34.8 34.9s34.8-15.6 34.8-34.8c0-19.3-15.6-34.9-34.8-34.9zm31.8 29.2c0 .2-.1.5-.4.5l-4.5.8h-.1c-.2 0-.4-.2-.4-.4s.1-.5.4-.5l4.5-.8c.2 0 .4.2.5.4zm-1.5-5.4c.1.2 0 .5-.3.6l-4.3 1.6s-.1 0-.2 0c-.2 0-.3-.1-.4-.3s0-.5.3-.6l4.3-1.6c.3 0 .5.1.6.3zm-2.3-5.5c.2.4.1.9-.3 1.1l-5.4 3.2c-.2.1-.3.1-.4.1-.3 0-.6-.1-.7-.4-.2-.4-.1-.9.3-1.1l5.5-3.2c.3-.2.8-.1 1 .3zm-19.1-9.2 1.6-4.3c.1-.2.3-.3.6-.3.2.1.3.3.3.6l-1.6 4.3c-.1.2-.3.3-.5.3-.1 0-.1 0-.2 0-.2-.1-.3-.3-.2-.6zm-3.8-5.6c0-.2.3-.4.5-.4s.4.3.4.5l-.8 4.5c0 .2-.2.4-.4.4h-.1c-.2 0-.4-.3-.4-.5zm-5.9-.5c0-.4.4-.8.8-.8s.8.4.8.8v6.3c0 .4-.4.8-.8.8s-.8-.4-.8-.8zm.3 31.2c1-.3 1.9 0 2.6.6l3.2-.8.9 3.3-3.2.8c-.6 1.4-2.2 2.4-4.3 1.6-2.4-1.9-1.4-4.9.8-5.5zm-3.3 4.1c.2.7.6 1.2 1.1 1.6l-19.8 3.6c-1.7.3-1.8 0-.2-.6l19.1-6.6c-.3.6-.4 1.3-.2 2zm-1.8-35.2c.2 0 .5.1.5.4l.8 4.5c0 .2-.1.5-.4.5h-.1c-.2 0-.4-.2-.4-.4l-.8-4.5c0-.2.2-.5.4-.5zm-5.4 1.5c.2-.1.5 0 .6.3l1.6 4.3c.1.2 0 .5-.3.6 0 0-.1 0-.2 0-.2 0-.3-.1-.4-.3l-1.6-4.3c0-.3.1-.6.3-.6zm-5.2 1.9c.4-.2.9-.1 1.1.3l3.2 5.5c.2.4.1.9-.3 1.1-.1.1-.3.1-.4.1-.3 0-.6-.1-.7-.4l-3.2-5.5c-.2-.4 0-.9.3-1.1zm-4.5 3.7c.2-.2.5-.1.6.1l3 3.5c.2.2.1.5-.1.6-.1.1-.2.1-.3.1s-.3-.1-.3-.2l-3-3.5c-.1-.2-.1-.5.1-.6zm-4 3.9c.2-.2.4-.2.6-.1l3.5 3c.2.2.2.4.1.6-.1.1-.2.2-.3.2s-.2 0-.3-.1l-3.5-3c-.2-.1-.2-.4-.1-.6zm-3.3 4.2c.2-.4.7-.5 1.1-.3l5.5 3.2c.4.2.5.7.3 1.1-.1.3-.4.4-.7.4-.1 0-.3 0-.4-.1l-5.5-3.2c-.4-.2-.5-.7-.3-1.1zm-2.3 5.5c.1-.2.3-.3.6-.3l4.3 1.6c.2.1.3.3.3.6-.1.2-.2.3-.4.3 0 0-.1 0-.2 0l-4.3-1.6c-.2-.1-.3-.4-.3-.6zm-.9 5.1 4.5.8c.2 0 .4.3.4.5s-.2.4-.4.4h-.1l-4.5-.8c-.2 0-.4-.3-.4-.5 0-.3.3-.5.5-.4zm-1.1 5.6c0-.4.4-.8.8-.8h6.3c.4 0 .8.4.8.8s-.4.8-.8.8h-6.3c-.5 0-.8-.3-.8-.8zm1 6.3c-.2 0-.4-.2-.4-.4s.1-.5.4-.5l4.5-.8c.2 0 .5.1.5.4 0 .2-.1.5-.4.5zm1.5 5.4c-.2 0-.4-.1-.4-.3-.1-.2 0-.5.3-.6l4.2-1.6c.2-.1.5 0 .6.3.1.2 0 .5-.3.6l-4.3 1.5zm8.4 1.6-5.5 3.2c-.1.1-.3.1-.4.1-.3 0-.6-.1-.7-.4-.2-.4-.1-.9.3-1.1l5.5-3.2c.4-.2.9-.1 1.1.3s.1.9-.3 1.1zm33.5 10.5c0 .4-.3.6-.6.6h-22.9c-.4 0-.6-.3-.6-.6v-4c0-.4.3-.6.6-.6h22.8c.4 0 .6.3.6.6v4zm4.4-50.7-3.2 5.5c-.2.3-.4.4-.7.4-.1 0-.3 0-.4-.1-.4-.2-.5-.7-.3-1.1l3.2-5.5c.2-.4.7-.5 1.1-.3s.5.7.3 1.1zm1 6.9c-.1 0-.2 0-.3-.1-.2-.2-.2-.4-.1-.6l3-3.5c.2-.2.4-.2.6-.1.2.2.2.4.1.6l-3 3.5c-.1.1-.2.2-.3.2zm3 3.2c-.2-.2-.1-.5.1-.6l3.5-3c.2-.2.5-.1.6.1.2.2.1.5-.1.6l-3.5 3c-.1.1-.2.1-.3.1-.1-.1-.2-.1-.3-.2zm7.5 33c-.1.3-.4.4-.7.4-.1 0-.3 0-.4-.1l-5.5-3.2c-.4-.2-.5-.7-.3-1.1s.7-.5 1.1-.3l5.5 3.2c.4.2.6.7.3 1.1zm2.3-4.8c-.1.2-.2.3-.4.3 0 0-.1 0-.2 0l-4.3-1.6c-.2-.1-.4-.3-.3-.6.1-.2.3-.3.6-.3l4.3 1.6c.3.1.4.3.3.6zm1-5.1-4.6-.8c-.2 0-.4-.3-.4-.5s.3-.4.5-.4l4.5.8c.2 0 .4.3.4.5 0 .3-.2.4-.4.4zm.3-5.5h-6.3c-.4 0-.8-.4-.8-.8s.4-.8.8-.8h6.3c.4 0 .8.4.8.8 0 .5-.4.8-.8.8z" fill="#464646"/></svg>