<svg enable-background="new 0 0 56.7 56.7" viewBox="0 0 56.7 56.7" xmlns="http://www.w3.org/2000/svg"><path d="m41.3 9.9c-6.2-6.8-16.7-6.3-23.7-1.1-6 4.5-10.2 14.3-5.2 21.1 1 1.4 2.5 2.2 4.2 2.6.4.1.8-.1 1-.5.3-.9.7-1.8.8-2.7 0-.4-.3-.6-.6-.6-4.6-5-1.5-11.2 3-15 3.9-3.4 11.1-6.6 15.7-2.7 3.2 2.7 3.4 7.7 3.3 11.5-.2 4.8-1.9 9.8-6.8 11.3-1.6.5-3.5.3-4.6-1.1-1.4-1.7-1-3.7-.5-5.4.7-2.7 2.4-6.7.8-9.4-1.9-3.3-5.9-.3-7 1.9-.7 1.3-1.9 5.7-.1 6.8-1.9 4.9-3.3 10.3-4.1 15.5-.4 2.3-.8 4.9-.3 7.3 0 .1.5 1.9 1 2.6-.1.5.6.6.8.3 1.8-2.4 3.6-4.7 4.6-7.6.5-1.5.7-3.2 1-4.8.2-1.1.7-2.3.8-3.5 1.6 1.2 3.6 2.2 5.5 2.5 2.9.6 6.3-.5 8.6-2.1.4-.3.7-.6 1.1-.9 1.1-.7 2.1-1.7 2.9-2.8 5-6.9 3.3-17.3-2.2-23.2zm-24.5 19.8c.1.1.1.1.1.1 0 .1-.1.1-.1.2-.1-.1-.1-.2-.2-.2 0-.1 0-.2 0-.2.1 0 .1 0 .2.1zm-3.1-13.5c-.5.8-.8 1.6-1.2 2.4.3-.9.6-1.8 1-2.6.1 0 .1.1.2.1s0 0 0 .1zm27.8-3.4c-.1-.1-.2-.2-.3-.2l-.1-.1c0-.1-.1-.2-.1-.3.3.4.5.7.8 1.1-.1-.2-.2-.3-.3-.5z" fill="#fff"/></svg>
