<svg xmlns="http://www.w3.org/2000/svg" enable-background="new 0 0 100 100" viewBox="0 0 100 100"><g fill="#464646"><path d="m57.9 21.4c-.4 0-.7.3-.7.7v3.2h-3.8v-3.3c0-.4-.3-.7-.7-.7s-.7.3-.7.7v3.2h-3.8v-3.2c0-.4-.3-.7-.7-.7s-.7.3-.7.7v3.2h-3.8v-3.2c0-.4-.3-.7-.7-.7s-.7.3-.7.7v3.9c0 .4.3.7.7.7h4.7v3.2c0 .4.3.7.7.7s.7-.3.7-.7v-3.2h3.8v3.2c0 .4.3.7.7.7s.7-.3.7-.7v-3.2h3.8v3.2c0 .4.3.7.7.7s.7-.3.7-.7v-7.8c-.2-.3-.5-.6-.9-.6z"/><path d="m46.6 81.3c0 1.4 1.1 2.5 2.5 2.5h2.1c1.4 0 2.5-1.1 2.5-2.5v-12.1h-7.1z"/><path d="m55.1 49.5v17.5c1.2-.1 2.1-1.1 2.2-2.3s0 0 0-.1v-4.3-2.9c.1-3.7 1-9.8 5.7-16.2-2.1.1-4.1.9-5.5 2.2-1.5 1.6-2.3 3.7-2.4 6.1z"/><path d="m50.1 15.4c-9.6 0-17 6.4-17 14.6 0 3.2 1.2 6.7 3.2 9.8h.6c2.7 0 5.1.9 6.9 2.6 1.8 1.8 2.8 4.2 2.8 7v17.5h7.2c0-1.8 0-13.4 0-17.5 0-2.8 1-5.2 2.8-7 1.8-1.7 4.2-2.7 6.9-2.6h.5c2-3 3.2-6.5 3.2-9.8 0-8.1-7.5-14.6-17.1-14.6zm0 19.6c-7.4 0-13.4-4.1-13.4-9.1s6-9.1 13.4-9.1 13.4 4.1 13.4 9.1-6 9.1-13.4 9.1z"/><path d="m42.7 43.5c-1.4-1.4-3.4-2.2-5.5-2.2 4.7 6.3 5.5 12.5 5.7 16.2v2.9 4.3.1c0 1.2 1 2.2 2.2 2.3 0-1.9 0-13.4 0-17.5 0-2.5-.8-4.6-2.4-6.1z"/></g></svg>