<svg xmlns="http://www.w3.org/2000/svg" enable-background="new 0 0 56.7 50.9" viewBox="0 0 56.7 50.9"><path d="m53.3 10.1c-1.8.8-3.8 1.4-5.9 1.7 2.1-1.4 3.8-3.3 4.5-5.7-2 1.2-4.2 2.1-6.5 2.6-1.8-2-4.5-3.3-7.5-3.3-5.7 0-10.2 4.7-10.2 10.4 0 .8.2 1.7.3 2.4-8.5-.6-16-4.7-21.1-11-.9 1.5-1.3 3.3-1.3 5.3 0 3.6 1.8 6.8 4.5 8.6-1.7 0-3.3-.5-4.7-1.4v.2c0 5 3.6 9.2 8.3 10.1-.9.3-1.8.3-2.7.3-.6 0-1.4 0-2-.2 1.4 4.1 5.1 7.1 9.6 7.2-3.5 2.7-8 4.4-12.8 4.4-.9 0-1.7 0-2.4-.2 4.5 2.9 9.9 4.7 15.8 4.7 18.9 0 29.3-15.8 29.3-29.4 0-.5 0-.9 0-1.4 1.7-1.4 3.3-3.2 4.8-5.3z" fill="#fff"/></svg>
